<svg width="48" height="48" viewBox="0 0 48 48" fill="none" xmlns="http://www.w3.org/2000/svg">
<path d="M27.0811 12.5605C27.7541 12.5605 28.2003 11.8718 27.9473 11.265C27.7795 10.8552 27.3376 10.6159 26.8983 10.7044C26.4476 10.7958 26.1436 11.1875 26.1436 11.6231C26.1436 12.1246 26.5491 12.5605 27.0811 12.5605Z" fill="#F3F8F7"/>
<path d="M24.0008 27.0251C28.6862 27.0251 32.4979 23.2134 32.4979 18.5281C32.4979 16.6128 31.842 14.7343 30.6512 13.2387C30.3288 12.8336 29.7388 12.7665 29.3338 13.0892C28.9287 13.4117 28.8618 14.0015 29.1843 14.4066C30.1254 15.5886 30.6229 17.0137 30.6229 18.5281C30.6229 22.1795 27.6522 25.1501 24.0008 25.1501C20.3495 25.1501 17.3789 22.1795 17.3789 18.5281C17.3789 15.0085 20.129 12.1041 23.6396 11.9157C23.8335 11.9053 24.0105 11.8367 24.1545 11.7278C24.888 11.1728 24.4612 9.99506 23.5392 10.0434C19.0334 10.2851 15.5039 14.012 15.5039 18.5281C15.5038 23.2133 19.3156 27.0251 24.0008 27.0251Z" fill="#F3F8F7"/>
<path d="M43.756 6.52969H38.123C37.8356 6.10753 37.6565 6.003 36.4729 4.79775C35.2073 3.53231 33.1479 3.53231 31.8822 4.79775L30.4493 6.23081C29.7077 5.84109 28.9338 5.52009 28.1358 5.27138V3.24609C28.1359 1.45622 26.6798 0 24.8898 0H23.1111C21.3212 0 19.865 1.45622 19.865 3.24609V5.27147C19.0672 5.52019 18.2931 5.84128 17.5516 6.231L16.1185 4.79784C14.8529 3.53222 12.7936 3.53222 11.5279 4.79784C10.3641 5.98303 10.1657 6.10687 9.87798 6.52978H4.24492C1.96136 6.52978 0.103516 8.38753 0.103516 10.6712V32.6488C0.103516 34.9258 1.9548 36.7902 4.24483 36.7902H20.4891L19.2598 41.2033H16.4424C14.7489 41.2033 13.3711 42.5811 13.3711 44.2747V46.125H9.92973C9.41195 46.125 8.99223 46.5448 8.99223 47.0625C8.99223 47.5802 9.41195 48 9.92973 48H38.0712C38.5889 48 39.0087 47.5802 39.0087 47.0625C39.0087 46.5448 38.5889 46.125 38.0712 46.125H34.6299V44.2746C34.6299 42.5811 33.2521 41.2032 31.5586 41.2032H28.741L27.5118 36.7901H43.7561C46.0397 36.7901 47.8975 34.9324 47.8975 32.6487C47.8975 31.4828 47.8975 11.4444 47.8975 10.6711C47.8974 8.38753 46.0397 6.52969 43.756 6.52969ZM43.756 8.40469C45.0057 8.40469 46.0224 9.42141 46.0224 10.6711V28.5384H38.6711C38.6294 27.7494 38.3047 26.9841 37.7308 26.4101L36.2978 24.9772C36.6876 24.2356 37.0086 23.4617 37.2573 22.6637C39.3058 22.6585 39.3282 22.6761 39.6141 22.6469C41.2489 22.4804 42.5288 21.0957 42.5288 19.4176V17.6389C42.5288 15.8489 41.0726 14.3928 39.2827 14.3928H37.2573C37.0086 13.5948 36.6875 12.8209 36.2978 12.0793L37.7308 10.6463C38.3525 10.0247 38.67 9.21066 38.6825 8.40469H43.756ZM11.596 7.3815L12.8537 6.12366C13.3884 5.58909 14.2582 5.58909 14.7927 6.12366L16.7273 8.05828C17.0305 8.36128 17.5009 8.42016 17.8696 8.20097C18.8585 7.61259 19.9229 7.17113 21.0335 6.88875C21.4491 6.78319 21.7401 6.40903 21.7401 5.98022V3.24609C21.7401 2.49009 22.3552 1.875 23.1112 1.875H24.8899C25.6459 1.875 26.261 2.49009 26.261 3.24609V5.98022C26.261 6.40903 26.552 6.78319 26.9676 6.88875C28.0781 7.17103 29.1426 7.61259 30.1315 8.20097C30.4999 8.42025 30.9703 8.36147 31.2738 8.05828L33.2082 6.12366C33.7428 5.58928 34.6127 5.58909 35.1474 6.12366C36.4119 7.43025 36.6708 7.49513 36.7836 8.10262C36.8664 8.55731 36.7181 9.00722 36.4051 9.32044L34.4706 11.255C34.1673 11.5583 34.1085 12.0287 34.3279 12.3974C34.8428 13.2626 35.2451 14.1857 35.5268 15.147C35.567 15.2843 35.6048 15.4224 35.6401 15.5613C35.7457 15.9769 36.1198 16.2678 36.5486 16.2678H39.2828C40.0388 16.2678 40.6539 16.8829 40.6539 17.6389V19.4176C40.6539 20.1736 40.0388 20.7887 39.2828 20.7887H36.5486C36.1198 20.7887 35.7457 21.0797 35.6401 21.4953C35.3578 22.6058 34.9163 23.6703 34.3279 24.6592C34.3142 24.6822 34.3015 24.7057 34.29 24.7294C34.1169 25.0859 34.1862 25.5171 34.4707 25.8015C36.1902 27.6324 36.705 27.7653 36.7968 28.5384H11.2044C11.2397 28.2406 11.3735 27.9583 11.5959 27.7359L13.5304 25.8014C13.8337 25.4981 13.8925 25.0277 13.6732 24.6591C13.0846 23.67 12.6431 22.6056 12.361 21.4952C12.2555 21.0795 11.8812 20.7886 11.4524 20.7886H8.7183C7.9623 20.7886 7.3472 20.1735 7.3472 19.4175V17.6388C7.3472 16.8828 7.9623 16.2677 8.7183 16.2677H11.4525C11.8813 16.2677 12.2555 15.9767 12.3611 15.5611C12.6434 14.4504 13.0848 13.3861 13.6733 12.3973C13.8917 12.0302 13.8352 11.5596 13.5305 11.2549C11.6339 9.33553 11.5711 9.33684 11.4149 9.09609C11.0664 8.56003 11.1358 7.84144 11.596 7.3815ZM4.24492 8.40469H9.31848C9.33123 9.22069 9.65636 10.0326 10.2701 10.6463L11.7032 12.0793C11.3135 12.8209 10.9924 13.595 10.7437 14.3928H8.7183C6.92842 14.3928 5.4722 15.8489 5.4722 17.6389V19.4176C5.4722 21.2093 6.9302 22.6637 8.7183 22.6637H10.7437C10.9924 23.4615 11.3134 24.2356 11.7032 24.9772L10.2701 26.4101C9.6962 26.9841 9.37155 27.7494 9.32983 28.5384H1.97852V10.6711C1.97852 9.42141 2.99523 8.40469 4.24492 8.40469ZM32.7549 44.2746V46.125H15.2461V44.2746C15.2461 43.6149 15.7827 43.0782 16.4424 43.0782H31.5586C32.2182 43.0782 32.7549 43.6149 32.7549 44.2746ZM26.7947 41.2032H21.2062L22.4354 36.7901H25.5654L26.7947 41.2032ZM46.0224 32.6487C46.0224 33.8984 45.0057 34.9151 43.756 34.9151C42.3567 34.9151 5.55039 34.9151 4.24483 34.9151C2.99148 34.9151 1.97842 33.8949 1.97842 32.6487V30.4134H46.0224V32.6487H46.0224Z" fill="#F3F8F7"/>
</svg>
