<svg width="532" height="425" viewBox="0 0 532 425" fill="none" xmlns="http://www.w3.org/2000/svg">
<circle cx="385.5" cy="278.5" r="146.5" fill="#17BCB4"/>
<path d="M348.294 261.317C348.448 261.559 348.525 261.812 348.525 262.076C348.525 262.406 348.393 262.681 348.129 262.901C347.887 263.099 347.601 263.198 347.271 263.198C346.765 263.198 346.369 262.978 346.083 262.538L341.661 255.542C341.089 254.64 340.495 254.024 339.879 253.694C339.263 253.342 338.427 253.166 337.371 253.166H333.213V261.779C333.213 262.197 333.092 262.538 332.85 262.802C332.608 263.044 332.289 263.165 331.893 263.165C331.475 263.165 331.145 263.044 330.903 262.802C330.661 262.538 330.54 262.197 330.54 261.779V241.055C330.54 240.659 330.661 240.34 330.903 240.098C331.167 239.856 331.508 239.735 331.926 239.735H340.11C342.64 239.735 344.565 240.296 345.885 241.418C347.227 242.54 347.898 244.19 347.898 246.368C347.898 248.216 347.359 249.701 346.281 250.823C345.225 251.945 343.707 252.627 341.727 252.869C342.277 253.045 342.772 253.331 343.212 253.727C343.652 254.123 344.092 254.673 344.532 255.377L348.294 261.317ZM339.879 250.922C341.683 250.922 343.025 250.548 343.905 249.8C344.807 249.052 345.258 247.919 345.258 246.401C345.258 244.905 344.818 243.794 343.938 243.068C343.058 242.342 341.705 241.979 339.879 241.979H333.213V250.922H339.879ZM365.208 259.271C365.45 259.271 365.659 259.37 365.835 259.568C366.011 259.766 366.099 260.019 366.099 260.327C366.099 260.877 365.714 261.383 364.944 261.845C364.152 262.307 363.316 262.659 362.436 262.901C361.556 263.121 360.698 263.231 359.862 263.231C357.376 263.231 355.407 262.494 353.955 261.02C352.525 259.546 351.81 257.511 351.81 254.915C351.81 253.265 352.129 251.813 352.767 250.559C353.405 249.283 354.296 248.293 355.44 247.589C356.606 246.885 357.926 246.533 359.4 246.533C361.49 246.533 363.151 247.215 364.383 248.579C365.615 249.943 366.231 251.791 366.231 254.123C366.231 254.563 366.143 254.882 365.967 255.08C365.791 255.278 365.505 255.377 365.109 255.377H354.483C354.681 259.161 356.474 261.053 359.862 261.053C360.72 261.053 361.457 260.943 362.073 260.723C362.689 260.481 363.349 260.162 364.053 259.766C364.625 259.436 365.01 259.271 365.208 259.271ZM359.433 248.612C358.025 248.612 356.892 249.052 356.034 249.932C355.198 250.812 354.703 252.055 354.549 253.661H363.888C363.844 252.033 363.437 250.79 362.667 249.932C361.897 249.052 360.819 248.612 359.433 248.612ZM383.204 246.599C383.622 246.599 383.952 246.72 384.194 246.962C384.436 247.204 384.557 247.523 384.557 247.919V261.911C384.557 264.309 383.941 266.113 382.709 267.323C381.477 268.555 379.651 269.171 377.231 269.171C374.877 269.171 372.919 268.709 371.357 267.785C370.565 267.345 370.169 266.839 370.169 266.267C370.169 265.959 370.246 265.706 370.4 265.508C370.576 265.31 370.796 265.211 371.06 265.211C371.28 265.211 371.676 265.365 372.248 265.673C373.018 266.069 373.777 266.388 374.525 266.63C375.273 266.872 376.164 266.993 377.198 266.993C378.76 266.993 379.937 266.575 380.729 265.739C381.521 264.925 381.917 263.726 381.917 262.142V259.304C381.455 260.338 380.74 261.13 379.772 261.68C378.826 262.23 377.704 262.505 376.406 262.505C374.998 262.505 373.744 262.175 372.644 261.515C371.566 260.855 370.719 259.92 370.103 258.71C369.509 257.5 369.212 256.103 369.212 254.519C369.212 252.935 369.509 251.538 370.103 250.328C370.719 249.118 371.566 248.183 372.644 247.523C373.744 246.863 374.998 246.533 376.406 246.533C377.682 246.533 378.793 246.808 379.739 247.358C380.685 247.908 381.4 248.689 381.884 249.701V247.919C381.884 247.523 381.994 247.204 382.214 246.962C382.456 246.72 382.786 246.599 383.204 246.599ZM376.934 260.294C378.474 260.294 379.684 259.788 380.564 258.776C381.444 257.742 381.884 256.323 381.884 254.519C381.884 252.737 381.444 251.34 380.564 250.328C379.706 249.294 378.496 248.777 376.934 248.777C375.372 248.777 374.14 249.294 373.238 250.328C372.358 251.34 371.918 252.737 371.918 254.519C371.918 256.323 372.358 257.742 373.238 258.776C374.14 259.788 375.372 260.294 376.934 260.294ZM401.715 246.599C402.133 246.599 402.452 246.72 402.672 246.962C402.914 247.204 403.035 247.523 403.035 247.919V261.878C403.035 262.252 402.914 262.56 402.672 262.802C402.452 263.044 402.133 263.165 401.715 263.165C401.319 263.165 401 263.055 400.758 262.835C400.538 262.593 400.428 262.285 400.428 261.911V260.261C399.922 261.229 399.207 261.966 398.283 262.472C397.381 262.978 396.358 263.231 395.214 263.231C393.3 263.231 391.859 262.703 390.891 261.647C389.923 260.569 389.439 258.985 389.439 256.895V247.919C389.439 247.523 389.56 247.204 389.802 246.962C390.044 246.72 390.374 246.599 390.792 246.599C391.21 246.599 391.529 246.72 391.749 246.962C391.991 247.204 392.112 247.523 392.112 247.919V256.829C392.112 258.259 392.398 259.315 392.97 259.997C393.542 260.657 394.444 260.987 395.676 260.987C397.084 260.987 398.217 260.536 399.075 259.634C399.933 258.71 400.362 257.5 400.362 256.004V247.919C400.362 247.523 400.483 247.204 400.725 246.962C400.967 246.72 401.297 246.599 401.715 246.599ZM409.356 263.165C408.96 263.165 408.63 263.055 408.366 262.835C408.124 262.593 408.003 262.263 408.003 261.845V240.89C408.003 240.472 408.124 240.153 408.366 239.933C408.63 239.691 408.96 239.57 409.356 239.57C409.73 239.57 410.038 239.691 410.28 239.933C410.544 240.153 410.676 240.472 410.676 240.89V261.845C410.676 262.263 410.544 262.593 410.28 262.835C410.038 263.055 409.73 263.165 409.356 263.165ZM422.24 246.533C426.266 246.533 428.279 248.645 428.279 252.869V261.845C428.279 262.241 428.158 262.56 427.916 262.802C427.696 263.044 427.388 263.165 426.992 263.165C426.596 263.165 426.277 263.044 426.035 262.802C425.793 262.56 425.672 262.241 425.672 261.845V260.261C425.254 261.207 424.616 261.944 423.758 262.472C422.9 262.978 421.91 263.231 420.788 263.231C419.754 263.231 418.797 263.022 417.917 262.604C417.059 262.186 416.377 261.603 415.871 260.855C415.365 260.107 415.112 259.282 415.112 258.38C415.112 257.17 415.42 256.235 416.036 255.575C416.652 254.893 417.664 254.409 419.072 254.123C420.48 253.815 422.438 253.661 424.946 253.661H425.672V252.572C425.672 251.252 425.397 250.284 424.847 249.668C424.319 249.052 423.45 248.744 422.24 248.744C420.744 248.744 419.226 249.151 417.686 249.965C417.092 250.339 416.674 250.526 416.432 250.526C416.168 250.526 415.948 250.427 415.772 250.229C415.596 250.031 415.508 249.778 415.508 249.47C415.508 249.162 415.596 248.898 415.772 248.678C415.97 248.436 416.278 248.194 416.696 247.952C417.466 247.512 418.335 247.171 419.303 246.929C420.293 246.665 421.272 246.533 422.24 246.533ZM421.151 261.119C422.471 261.119 423.549 260.679 424.385 259.799C425.243 258.897 425.672 257.742 425.672 256.334V255.377H425.078C423.142 255.377 421.668 255.465 420.656 255.641C419.644 255.795 418.918 256.07 418.478 256.466C418.06 256.84 417.851 257.401 417.851 258.149C417.851 259.007 418.159 259.722 418.775 260.294C419.413 260.844 420.205 261.119 421.151 261.119ZM441.125 246.599C442.049 246.533 442.511 246.907 442.511 247.721C442.511 248.073 442.412 248.359 442.214 248.579C442.016 248.777 441.675 248.898 441.191 248.942L440.201 249.041C438.727 249.173 437.627 249.701 436.901 250.625C436.197 251.527 435.845 252.594 435.845 253.826V261.845C435.845 262.285 435.724 262.615 435.482 262.835C435.24 263.055 434.921 263.165 434.525 263.165C434.129 263.165 433.799 263.055 433.535 262.835C433.293 262.593 433.172 262.263 433.172 261.845V247.919C433.172 247.501 433.304 247.182 433.568 246.962C433.832 246.72 434.151 246.599 434.525 246.599C434.877 246.599 435.174 246.72 435.416 246.962C435.658 247.182 435.779 247.49 435.779 247.886V249.734C436.241 248.766 436.89 248.029 437.726 247.523C438.584 247.017 439.563 246.72 440.663 246.632L441.125 246.599ZM268.971 308.165C268.553 308.165 268.223 308.044 267.981 307.802C267.739 307.538 267.618 307.197 267.618 306.779V286.055C267.618 285.659 267.739 285.34 267.981 285.098C268.245 284.856 268.586 284.735 269.004 284.735H276.825C279.267 284.735 281.159 285.329 282.501 286.517C283.865 287.705 284.547 289.388 284.547 291.566C284.547 293.744 283.865 295.438 282.501 296.648C281.137 297.858 279.245 298.463 276.825 298.463H270.324V306.779C270.324 307.197 270.203 307.538 269.961 307.802C269.719 308.044 269.389 308.165 268.971 308.165ZM276.561 296.219C280.103 296.219 281.874 294.668 281.874 291.566C281.874 288.508 280.103 286.979 276.561 286.979H270.324V296.219H276.561ZM296.122 291.599C297.046 291.533 297.508 291.907 297.508 292.721C297.508 293.073 297.409 293.359 297.211 293.579C297.013 293.777 296.672 293.898 296.188 293.942L295.198 294.041C293.724 294.173 292.624 294.701 291.898 295.625C291.194 296.527 290.842 297.594 290.842 298.826V306.845C290.842 307.285 290.721 307.615 290.479 307.835C290.237 308.055 289.918 308.165 289.522 308.165C289.126 308.165 288.796 308.055 288.532 307.835C288.29 307.593 288.169 307.263 288.169 306.845V292.919C288.169 292.501 288.301 292.182 288.565 291.962C288.829 291.72 289.148 291.599 289.522 291.599C289.874 291.599 290.171 291.72 290.413 291.962C290.655 292.182 290.776 292.49 290.776 292.886V294.734C291.238 293.766 291.887 293.029 292.723 292.523C293.581 292.017 294.56 291.72 295.66 291.632L296.122 291.599ZM306.146 308.231C304.628 308.231 303.286 307.89 302.12 307.208C300.976 306.526 300.085 305.558 299.447 304.304C298.831 303.028 298.523 301.554 298.523 299.882C298.523 298.21 298.831 296.747 299.447 295.493C300.085 294.217 300.976 293.238 302.12 292.556C303.286 291.874 304.628 291.533 306.146 291.533C307.664 291.533 309.006 291.874 310.172 292.556C311.338 293.238 312.229 294.217 312.845 295.493C313.483 296.747 313.802 298.21 313.802 299.882C313.802 301.554 313.483 303.028 312.845 304.304C312.229 305.558 311.338 306.526 310.172 307.208C309.006 307.89 307.664 308.231 306.146 308.231ZM306.146 306.02C307.73 306.02 308.94 305.503 309.776 304.469C310.634 303.413 311.063 301.884 311.063 299.882C311.063 297.924 310.634 296.417 309.776 295.361C308.918 294.283 307.708 293.744 306.146 293.744C304.584 293.744 303.374 294.283 302.516 295.361C301.658 296.417 301.229 297.924 301.229 299.882C301.229 301.862 301.647 303.38 302.483 304.436C303.341 305.492 304.562 306.02 306.146 306.02ZM330.82 291.599C331.238 291.599 331.568 291.72 331.81 291.962C332.052 292.204 332.173 292.523 332.173 292.919V306.911C332.173 309.309 331.557 311.113 330.325 312.323C329.093 313.555 327.267 314.171 324.847 314.171C322.493 314.171 320.535 313.709 318.973 312.785C318.181 312.345 317.785 311.839 317.785 311.267C317.785 310.959 317.862 310.706 318.016 310.508C318.192 310.31 318.412 310.211 318.676 310.211C318.896 310.211 319.292 310.365 319.864 310.673C320.634 311.069 321.393 311.388 322.141 311.63C322.889 311.872 323.78 311.993 324.814 311.993C326.376 311.993 327.553 311.575 328.345 310.739C329.137 309.925 329.533 308.726 329.533 307.142V304.304C329.071 305.338 328.356 306.13 327.388 306.68C326.442 307.23 325.32 307.505 324.022 307.505C322.614 307.505 321.36 307.175 320.26 306.515C319.182 305.855 318.335 304.92 317.719 303.71C317.125 302.5 316.828 301.103 316.828 299.519C316.828 297.935 317.125 296.538 317.719 295.328C318.335 294.118 319.182 293.183 320.26 292.523C321.36 291.863 322.614 291.533 324.022 291.533C325.298 291.533 326.409 291.808 327.355 292.358C328.301 292.908 329.016 293.689 329.5 294.701V292.919C329.5 292.523 329.61 292.204 329.83 291.962C330.072 291.72 330.402 291.599 330.82 291.599ZM324.55 305.294C326.09 305.294 327.3 304.788 328.18 303.776C329.06 302.742 329.5 301.323 329.5 299.519C329.5 297.737 329.06 296.34 328.18 295.328C327.322 294.294 326.112 293.777 324.55 293.777C322.988 293.777 321.756 294.294 320.854 295.328C319.974 296.34 319.534 297.737 319.534 299.519C319.534 301.323 319.974 302.742 320.854 303.776C321.756 304.788 322.988 305.294 324.55 305.294ZM345.074 291.599C345.998 291.533 346.46 291.907 346.46 292.721C346.46 293.073 346.361 293.359 346.163 293.579C345.965 293.777 345.624 293.898 345.14 293.942L344.15 294.041C342.676 294.173 341.576 294.701 340.85 295.625C340.146 296.527 339.794 297.594 339.794 298.826V306.845C339.794 307.285 339.673 307.615 339.431 307.835C339.189 308.055 338.87 308.165 338.474 308.165C338.078 308.165 337.748 308.055 337.484 307.835C337.242 307.593 337.121 307.263 337.121 306.845V292.919C337.121 292.501 337.253 292.182 337.517 291.962C337.781 291.72 338.1 291.599 338.474 291.599C338.826 291.599 339.123 291.72 339.365 291.962C339.607 292.182 339.728 292.49 339.728 292.886V294.734C340.19 293.766 340.839 293.029 341.675 292.523C342.533 292.017 343.512 291.72 344.612 291.632L345.074 291.599ZM360.874 304.271C361.116 304.271 361.325 304.37 361.501 304.568C361.677 304.766 361.765 305.019 361.765 305.327C361.765 305.877 361.38 306.383 360.61 306.845C359.818 307.307 358.982 307.659 358.102 307.901C357.222 308.121 356.364 308.231 355.528 308.231C353.042 308.231 351.073 307.494 349.621 306.02C348.191 304.546 347.476 302.511 347.476 299.915C347.476 298.265 347.795 296.813 348.433 295.559C349.071 294.283 349.962 293.293 351.106 292.589C352.272 291.885 353.592 291.533 355.066 291.533C357.156 291.533 358.817 292.215 360.049 293.579C361.281 294.943 361.897 296.791 361.897 299.123C361.897 299.563 361.809 299.882 361.633 300.08C361.457 300.278 361.171 300.377 360.775 300.377H350.149C350.347 304.161 352.14 306.053 355.528 306.053C356.386 306.053 357.123 305.943 357.739 305.723C358.355 305.481 359.015 305.162 359.719 304.766C360.291 304.436 360.676 304.271 360.874 304.271ZM355.099 293.612C353.691 293.612 352.558 294.052 351.7 294.932C350.864 295.812 350.369 297.055 350.215 298.661H359.554C359.51 297.033 359.103 295.79 358.333 294.932C357.563 294.052 356.485 293.612 355.099 293.612ZM371.247 308.231C370.235 308.231 369.267 308.11 368.343 307.868C367.441 307.626 366.638 307.285 365.934 306.845C365.538 306.581 365.252 306.339 365.076 306.119C364.922 305.877 364.845 305.591 364.845 305.261C364.845 304.975 364.922 304.744 365.076 304.568C365.252 304.37 365.472 304.271 365.736 304.271C366 304.271 366.385 304.436 366.891 304.766C367.551 305.162 368.2 305.481 368.838 305.723C369.498 305.943 370.312 306.053 371.28 306.053C372.468 306.053 373.392 305.844 374.052 305.426C374.712 305.008 375.042 304.403 375.042 303.611C375.042 303.127 374.921 302.742 374.679 302.456C374.437 302.148 374.019 301.884 373.425 301.664C372.831 301.422 371.962 301.18 370.818 300.938C368.882 300.52 367.496 299.959 366.66 299.255C365.824 298.551 365.406 297.594 365.406 296.384C365.406 295.438 365.67 294.602 366.198 293.876C366.726 293.15 367.452 292.578 368.376 292.16C369.322 291.742 370.389 291.533 371.577 291.533C372.435 291.533 373.26 291.654 374.052 291.896C374.866 292.116 375.581 292.435 376.197 292.853C376.945 293.381 377.319 293.931 377.319 294.503C377.319 294.789 377.231 295.031 377.055 295.229C376.879 295.427 376.67 295.526 376.428 295.526C376.164 295.526 375.768 295.339 375.24 294.965C374.624 294.569 374.041 294.261 373.491 294.041C372.941 293.821 372.259 293.711 371.445 293.711C370.411 293.711 369.575 293.942 368.937 294.404C368.321 294.866 368.013 295.482 368.013 296.252C368.013 296.736 368.123 297.132 368.343 297.44C368.585 297.726 368.97 297.99 369.498 298.232C370.048 298.452 370.829 298.672 371.841 298.892C373.337 299.222 374.492 299.585 375.306 299.981C376.142 300.377 376.736 300.861 377.088 301.433C377.44 302.005 377.616 302.731 377.616 303.611C377.616 304.997 377.033 306.119 375.867 306.977C374.701 307.813 373.161 308.231 371.247 308.231ZM387.102 308.231C386.09 308.231 385.122 308.11 384.198 307.868C383.296 307.626 382.493 307.285 381.789 306.845C381.393 306.581 381.107 306.339 380.931 306.119C380.777 305.877 380.7 305.591 380.7 305.261C380.7 304.975 380.777 304.744 380.931 304.568C381.107 304.37 381.327 304.271 381.591 304.271C381.855 304.271 382.24 304.436 382.746 304.766C383.406 305.162 384.055 305.481 384.693 305.723C385.353 305.943 386.167 306.053 387.135 306.053C388.323 306.053 389.247 305.844 389.907 305.426C390.567 305.008 390.897 304.403 390.897 303.611C390.897 303.127 390.776 302.742 390.534 302.456C390.292 302.148 389.874 301.884 389.28 301.664C388.686 301.422 387.817 301.18 386.673 300.938C384.737 300.52 383.351 299.959 382.515 299.255C381.679 298.551 381.261 297.594 381.261 296.384C381.261 295.438 381.525 294.602 382.053 293.876C382.581 293.15 383.307 292.578 384.231 292.16C385.177 291.742 386.244 291.533 387.432 291.533C388.29 291.533 389.115 291.654 389.907 291.896C390.721 292.116 391.436 292.435 392.052 292.853C392.8 293.381 393.174 293.931 393.174 294.503C393.174 294.789 393.086 295.031 392.91 295.229C392.734 295.427 392.525 295.526 392.283 295.526C392.019 295.526 391.623 295.339 391.095 294.965C390.479 294.569 389.896 294.261 389.346 294.041C388.796 293.821 388.114 293.711 387.3 293.711C386.266 293.711 385.43 293.942 384.792 294.404C384.176 294.866 383.868 295.482 383.868 296.252C383.868 296.736 383.978 297.132 384.198 297.44C384.44 297.726 384.825 297.99 385.353 298.232C385.903 298.452 386.684 298.672 387.696 298.892C389.192 299.222 390.347 299.585 391.161 299.981C391.997 300.377 392.591 300.861 392.943 301.433C393.295 302.005 393.471 302.731 393.471 303.611C393.471 304.997 392.888 306.119 391.722 306.977C390.556 307.813 389.016 308.231 387.102 308.231ZM424.204 306.317C424.358 306.559 424.435 306.812 424.435 307.076C424.435 307.406 424.303 307.681 424.039 307.901C423.797 308.099 423.511 308.198 423.181 308.198C422.675 308.198 422.279 307.978 421.993 307.538L417.571 300.542C416.999 299.64 416.405 299.024 415.789 298.694C415.173 298.342 414.337 298.166 413.281 298.166H409.123V306.779C409.123 307.197 409.002 307.538 408.76 307.802C408.518 308.044 408.199 308.165 407.803 308.165C407.385 308.165 407.055 308.044 406.813 307.802C406.571 307.538 406.45 307.197 406.45 306.779V286.055C406.45 285.659 406.571 285.34 406.813 285.098C407.077 284.856 407.418 284.735 407.836 284.735H416.02C418.55 284.735 420.475 285.296 421.795 286.418C423.137 287.54 423.808 289.19 423.808 291.368C423.808 293.216 423.269 294.701 422.191 295.823C421.135 296.945 419.617 297.627 417.637 297.869C418.187 298.045 418.682 298.331 419.122 298.727C419.562 299.123 420.002 299.673 420.442 300.377L424.204 306.317ZM415.789 295.922C417.593 295.922 418.935 295.548 419.815 294.8C420.717 294.052 421.168 292.919 421.168 291.401C421.168 289.905 420.728 288.794 419.848 288.068C418.968 287.342 417.615 286.979 415.789 286.979H409.123V295.922H415.789ZM441.118 304.271C441.36 304.271 441.569 304.37 441.745 304.568C441.921 304.766 442.009 305.019 442.009 305.327C442.009 305.877 441.624 306.383 440.854 306.845C440.062 307.307 439.226 307.659 438.346 307.901C437.466 308.121 436.608 308.231 435.772 308.231C433.286 308.231 431.317 307.494 429.865 306.02C428.435 304.546 427.72 302.511 427.72 299.915C427.72 298.265 428.039 296.813 428.677 295.559C429.315 294.283 430.206 293.293 431.35 292.589C432.516 291.885 433.836 291.533 435.31 291.533C437.4 291.533 439.061 292.215 440.293 293.579C441.525 294.943 442.141 296.791 442.141 299.123C442.141 299.563 442.053 299.882 441.877 300.08C441.701 300.278 441.415 300.377 441.019 300.377H430.393C430.591 304.161 432.384 306.053 435.772 306.053C436.63 306.053 437.367 305.943 437.983 305.723C438.599 305.481 439.259 305.162 439.963 304.766C440.535 304.436 440.92 304.271 441.118 304.271ZM435.343 293.612C433.935 293.612 432.802 294.052 431.944 294.932C431.108 295.812 430.613 297.055 430.459 298.661H439.798C439.754 297.033 439.347 295.79 438.577 294.932C437.807 294.052 436.729 293.612 435.343 293.612ZM454.164 291.533C455.572 291.533 456.815 291.885 457.893 292.589C458.971 293.293 459.807 294.283 460.401 295.559C460.995 296.813 461.292 298.276 461.292 299.948C461.292 301.62 460.995 303.083 460.401 304.337C459.807 305.569 458.971 306.526 457.893 307.208C456.837 307.89 455.594 308.231 454.164 308.231C452.91 308.231 451.81 307.956 450.864 307.406C449.94 306.856 449.236 306.075 448.752 305.063V312.818C448.752 313.214 448.631 313.522 448.389 313.742C448.169 313.984 447.85 314.105 447.432 314.105C447.014 314.105 446.684 313.984 446.442 313.742C446.2 313.5 446.079 313.192 446.079 312.818V292.919C446.079 292.523 446.2 292.204 446.442 291.962C446.684 291.72 447.014 291.599 447.432 291.599C447.85 291.599 448.169 291.72 448.389 291.962C448.631 292.204 448.752 292.523 448.752 292.919V294.701C449.236 293.689 449.94 292.908 450.864 292.358C451.81 291.808 452.91 291.533 454.164 291.533ZM453.636 306.02C455.198 306.02 456.408 305.492 457.266 304.436C458.124 303.38 458.553 301.884 458.553 299.948C458.553 298.012 458.124 296.505 457.266 295.427C456.408 294.327 455.198 293.777 453.636 293.777C452.074 293.777 450.864 294.305 450.006 295.361C449.17 296.417 448.752 297.924 448.752 299.882C448.752 301.84 449.17 303.358 450.006 304.436C450.864 305.492 452.074 306.02 453.636 306.02ZM471.952 308.231C470.434 308.231 469.092 307.89 467.926 307.208C466.782 306.526 465.891 305.558 465.253 304.304C464.637 303.028 464.329 301.554 464.329 299.882C464.329 298.21 464.637 296.747 465.253 295.493C465.891 294.217 466.782 293.238 467.926 292.556C469.092 291.874 470.434 291.533 471.952 291.533C473.47 291.533 474.812 291.874 475.978 292.556C477.144 293.238 478.035 294.217 478.651 295.493C479.289 296.747 479.608 298.21 479.608 299.882C479.608 301.554 479.289 303.028 478.651 304.304C478.035 305.558 477.144 306.526 475.978 307.208C474.812 307.89 473.47 308.231 471.952 308.231ZM471.952 306.02C473.536 306.02 474.746 305.503 475.582 304.469C476.44 303.413 476.869 301.884 476.869 299.882C476.869 297.924 476.44 296.417 475.582 295.361C474.724 294.283 473.514 293.744 471.952 293.744C470.39 293.744 469.18 294.283 468.322 295.361C467.464 296.417 467.035 297.924 467.035 299.882C467.035 301.862 467.453 303.38 468.289 304.436C469.147 305.492 470.368 306.02 471.952 306.02ZM491.544 291.599C492.468 291.533 492.93 291.907 492.93 292.721C492.93 293.073 492.831 293.359 492.633 293.579C492.435 293.777 492.094 293.898 491.61 293.942L490.62 294.041C489.146 294.173 488.046 294.701 487.32 295.625C486.616 296.527 486.264 297.594 486.264 298.826V306.845C486.264 307.285 486.143 307.615 485.901 307.835C485.659 308.055 485.34 308.165 484.944 308.165C484.548 308.165 484.218 308.055 483.954 307.835C483.712 307.593 483.591 307.263 483.591 306.845V292.919C483.591 292.501 483.723 292.182 483.987 291.962C484.251 291.72 484.57 291.599 484.944 291.599C485.296 291.599 485.593 291.72 485.835 291.962C486.077 292.182 486.198 292.49 486.198 292.886V294.734C486.66 293.766 487.309 293.029 488.145 292.523C489.003 292.017 489.982 291.72 491.082 291.632L491.544 291.599ZM503.939 306.053C504.709 306.119 505.094 306.471 505.094 307.109C505.094 307.483 504.951 307.769 504.665 307.967C504.401 308.143 503.994 308.209 503.444 308.165L502.553 308.099C500.793 307.967 499.495 307.439 498.659 306.515C497.823 305.591 497.405 304.194 497.405 302.324V294.041H495.194C494.82 294.041 494.523 293.953 494.303 293.777C494.105 293.579 494.006 293.326 494.006 293.018C494.006 292.688 494.105 292.424 494.303 292.226C494.523 292.028 494.82 291.929 495.194 291.929H497.405V288.2C497.405 287.782 497.526 287.463 497.768 287.243C498.01 287.001 498.34 286.88 498.758 286.88C499.154 286.88 499.473 287.001 499.715 287.243C499.957 287.463 500.078 287.782 500.078 288.2V291.929H503.741C504.093 291.929 504.368 292.028 504.566 292.226C504.786 292.424 504.896 292.688 504.896 293.018C504.896 293.326 504.786 293.579 504.566 293.777C504.368 293.953 504.093 294.041 503.741 294.041H500.078V302.456C500.078 303.666 500.32 304.546 500.804 305.096C501.31 305.624 502.058 305.921 503.048 305.987L503.939 306.053Z" fill="#303137"/>
<circle cx="180" cy="132" r="132" fill="#F3F8F7"/>
<path d="M128.444 129.24C126.484 129.24 124.774 128.8 123.314 127.92C121.874 127.04 120.764 125.79 119.984 124.17C119.204 122.55 118.814 120.64 118.814 118.44C118.814 116.22 119.194 114.3 119.954 112.68C120.734 111.04 121.844 109.79 123.284 108.93C124.744 108.05 126.464 107.61 128.444 107.61C130.424 107.61 132.134 108.05 133.574 108.93C135.034 109.79 136.144 111.04 136.904 112.68C137.684 114.3 138.074 116.21 138.074 118.41C138.074 120.61 137.684 122.53 136.904 124.17C136.124 125.79 135.004 127.04 133.544 127.92C132.104 128.8 130.404 129.24 128.444 129.24ZM128.444 127.14C130.684 127.14 132.424 126.39 133.664 124.89C134.924 123.37 135.554 121.21 135.554 118.41C135.554 115.61 134.934 113.46 133.694 111.96C132.454 110.46 130.704 109.71 128.444 109.71C126.204 109.71 124.454 110.47 123.194 111.99C121.954 113.49 121.334 115.63 121.334 118.41C121.334 121.19 121.954 123.34 123.194 124.86C124.454 126.38 126.204 127.14 128.444 127.14ZM149.495 114.03C152.995 114.03 154.745 115.96 154.745 119.82V127.95C154.745 128.33 154.635 128.63 154.415 128.85C154.215 129.05 153.925 129.15 153.545 129.15C153.165 129.15 152.865 129.05 152.645 128.85C152.425 128.63 152.315 128.33 152.315 127.95V119.97C152.315 118.61 152.045 117.62 151.505 117C150.985 116.38 150.145 116.07 148.985 116.07C147.645 116.07 146.575 116.48 145.775 117.3C144.975 118.12 144.575 119.23 144.575 120.63V127.95C144.575 128.33 144.465 128.63 144.245 128.85C144.045 129.05 143.755 129.15 143.375 129.15C142.995 129.15 142.695 129.05 142.475 128.85C142.255 128.63 142.145 128.33 142.145 127.95V115.29C142.145 114.93 142.255 114.64 142.475 114.42C142.695 114.2 142.995 114.09 143.375 114.09C143.735 114.09 144.015 114.2 144.215 114.42C144.435 114.64 144.545 114.92 144.545 115.26V116.79C145.025 115.89 145.695 115.21 146.555 114.75C147.415 114.27 148.395 114.03 149.495 114.03ZM160.005 122.01C159.645 122.01 159.365 121.92 159.165 121.74C158.985 121.56 158.895 121.32 158.895 121.02C158.895 120.72 158.985 120.48 159.165 120.3C159.365 120.1 159.645 120 160.005 120H166.605C166.985 120 167.265 120.1 167.445 120.3C167.645 120.48 167.745 120.72 167.745 121.02C167.745 121.32 167.645 121.56 167.445 121.74C167.265 121.92 166.985 122.01 166.605 122.01H160.005ZM177.283 129.15C176.903 129.15 176.593 129.04 176.353 128.82C176.133 128.58 176.022 128.27 176.022 127.89V109.95H169.573C169.213 109.95 168.933 109.86 168.733 109.68C168.533 109.5 168.433 109.24 168.433 108.9C168.433 108.56 168.533 108.3 168.733 108.12C168.933 107.94 169.213 107.85 169.573 107.85H184.963C185.323 107.85 185.603 107.94 185.803 108.12C186.003 108.3 186.103 108.56 186.103 108.9C186.103 109.24 186.003 109.5 185.803 109.68C185.603 109.86 185.323 109.95 184.963 109.95H178.513V127.89C178.513 128.27 178.403 128.58 178.183 128.82C177.963 129.04 177.663 129.15 177.283 129.15ZM191.421 129.15C191.061 129.15 190.761 129.05 190.521 128.85C190.301 128.63 190.191 128.33 190.191 127.95V115.29C190.191 114.91 190.301 114.62 190.521 114.42C190.761 114.2 191.061 114.09 191.421 114.09C191.781 114.09 192.071 114.2 192.291 114.42C192.511 114.62 192.621 114.91 192.621 115.29V127.95C192.621 128.35 192.511 128.65 192.291 128.85C192.071 129.05 191.781 129.15 191.421 129.15ZM191.421 110.94C190.941 110.94 190.551 110.8 190.251 110.52C189.951 110.24 189.801 109.87 189.801 109.41C189.801 108.97 189.951 108.61 190.251 108.33C190.551 108.05 190.941 107.91 191.421 107.91C191.901 107.91 192.291 108.05 192.591 108.33C192.891 108.61 193.041 108.97 193.041 109.41C193.041 109.87 192.891 110.24 192.591 110.52C192.291 110.8 191.901 110.94 191.421 110.94ZM213.424 114.03C216.664 114.03 218.284 115.96 218.284 119.82V127.95C218.284 128.33 218.174 128.63 217.954 128.85C217.734 129.05 217.444 129.15 217.084 129.15C216.724 129.15 216.424 129.05 216.184 128.85C215.964 128.63 215.854 128.33 215.854 127.95V119.88C215.854 118.54 215.614 117.57 215.134 116.97C214.654 116.37 213.904 116.07 212.884 116.07C211.664 116.07 210.704 116.48 210.004 117.3C209.304 118.12 208.954 119.23 208.954 120.63V127.95C208.954 128.33 208.834 128.63 208.594 128.85C208.374 129.05 208.084 129.15 207.724 129.15C207.364 129.15 207.074 129.05 206.854 128.85C206.634 128.63 206.524 128.33 206.524 127.95V119.88C206.524 118.54 206.284 117.57 205.804 116.97C205.324 116.37 204.564 116.07 203.524 116.07C202.324 116.07 201.364 116.48 200.644 117.3C199.944 118.12 199.594 119.23 199.594 120.63V127.95C199.594 128.33 199.484 128.63 199.264 128.85C199.044 129.05 198.754 129.15 198.394 129.15C198.034 129.15 197.734 129.05 197.494 128.85C197.274 128.63 197.164 128.33 197.164 127.95V115.29C197.164 114.93 197.274 114.64 197.494 114.42C197.734 114.2 198.034 114.09 198.394 114.09C198.734 114.09 199.014 114.2 199.234 114.42C199.454 114.62 199.564 114.9 199.564 115.26V116.7C200.004 115.84 200.614 115.18 201.394 114.72C202.174 114.26 203.074 114.03 204.094 114.03C206.374 114.03 207.864 114.99 208.564 116.91C208.984 116.03 209.624 115.33 210.484 114.81C211.344 114.29 212.324 114.03 213.424 114.03ZM234.021 125.61C234.241 125.61 234.431 125.7 234.591 125.88C234.751 126.06 234.831 126.29 234.831 126.57C234.831 127.07 234.481 127.53 233.781 127.95C233.061 128.37 232.301 128.69 231.501 128.91C230.701 129.11 229.921 129.21 229.161 129.21C226.901 129.21 225.111 128.54 223.791 127.2C222.491 125.86 221.841 124.01 221.841 121.65C221.841 120.15 222.131 118.83 222.711 117.69C223.291 116.53 224.101 115.63 225.141 114.99C226.201 114.35 227.401 114.03 228.741 114.03C230.641 114.03 232.151 114.65 233.271 115.89C234.391 117.13 234.951 118.81 234.951 120.93C234.951 121.33 234.871 121.62 234.711 121.8C234.551 121.98 234.291 122.07 233.931 122.07H224.271C224.451 125.51 226.081 127.23 229.161 127.23C229.941 127.23 230.611 127.13 231.171 126.93C231.731 126.71 232.331 126.42 232.971 126.06C233.491 125.76 233.841 125.61 234.021 125.61ZM228.771 115.92C227.491 115.92 226.461 116.32 225.681 117.12C224.921 117.92 224.471 119.05 224.331 120.51H232.821C232.781 119.03 232.411 117.9 231.711 117.12C231.011 116.32 230.031 115.92 228.771 115.92ZM112.458 170.24C110.958 170.24 109.518 170.02 108.138 169.58C106.778 169.12 105.688 168.51 104.868 167.75C104.568 167.47 104.418 167.12 104.418 166.7C104.418 166.42 104.498 166.18 104.658 165.98C104.818 165.76 105.008 165.65 105.228 165.65C105.488 165.65 105.768 165.76 106.068 165.98C107.928 167.42 110.048 168.14 112.428 168.14C114.148 168.14 115.468 167.81 116.388 167.15C117.308 166.49 117.768 165.55 117.768 164.33C117.768 163.63 117.548 163.07 117.108 162.65C116.668 162.21 116.088 161.86 115.368 161.6C114.648 161.34 113.678 161.07 112.458 160.79C110.818 160.41 109.468 160.01 108.408 159.59C107.368 159.17 106.518 158.57 105.858 157.79C105.218 157.01 104.898 155.99 104.898 154.73C104.898 153.53 105.218 152.47 105.858 151.55C106.518 150.61 107.428 149.89 108.588 149.39C109.768 148.87 111.108 148.61 112.608 148.61C114.008 148.61 115.308 148.83 116.508 149.27C117.728 149.69 118.748 150.3 119.568 151.1C119.888 151.42 120.048 151.77 120.048 152.15C120.048 152.43 119.968 152.68 119.808 152.9C119.648 153.1 119.458 153.2 119.238 153.2C119.018 153.2 118.728 153.09 118.368 152.87C117.388 152.07 116.478 151.51 115.638 151.19C114.798 150.87 113.788 150.71 112.608 150.71C110.948 150.71 109.658 151.06 108.738 151.76C107.818 152.44 107.358 153.4 107.358 154.64C107.358 155.7 107.758 156.5 108.558 157.04C109.378 157.56 110.628 158.02 112.308 158.42C114.128 158.86 115.558 159.27 116.598 159.65C117.638 160.01 118.498 160.56 119.178 161.3C119.878 162.04 120.228 163.03 120.228 164.27C120.228 165.45 119.898 166.49 119.238 167.39C118.598 168.29 117.688 168.99 116.508 169.49C115.328 169.99 113.978 170.24 112.458 170.24ZM134.963 155.09C135.343 155.09 135.633 155.2 135.833 155.42C136.053 155.64 136.163 155.93 136.163 156.29V168.98C136.163 169.32 136.053 169.6 135.833 169.82C135.633 170.04 135.343 170.15 134.963 170.15C134.603 170.15 134.313 170.05 134.093 169.85C133.893 169.63 133.793 169.35 133.793 169.01V167.51C133.333 168.39 132.683 169.06 131.843 169.52C131.023 169.98 130.093 170.21 129.053 170.21C127.313 170.21 126.003 169.73 125.123 168.77C124.243 167.79 123.803 166.35 123.803 164.45V156.29C123.803 155.93 123.913 155.64 124.133 155.42C124.353 155.2 124.653 155.09 125.033 155.09C125.413 155.09 125.703 155.2 125.903 155.42C126.123 155.64 126.233 155.93 126.233 156.29V164.39C126.233 165.69 126.493 166.65 127.013 167.27C127.533 167.87 128.353 168.17 129.473 168.17C130.753 168.17 131.783 167.76 132.563 166.94C133.343 166.1 133.733 165 133.733 163.64V156.29C133.733 155.93 133.843 155.64 134.063 155.42C134.283 155.2 134.583 155.09 134.963 155.09ZM148.03 155.03C149.31 155.03 150.44 155.34 151.42 155.96C152.4 156.58 153.16 157.46 153.7 158.6C154.24 159.74 154.51 161.06 154.51 162.56C154.51 164.08 154.24 165.42 153.7 166.58C153.16 167.72 152.4 168.61 151.42 169.25C150.44 169.89 149.31 170.21 148.03 170.21C146.89 170.21 145.89 169.96 145.03 169.46C144.19 168.96 143.55 168.25 143.11 167.33V168.95C143.11 169.31 143 169.6 142.78 169.82C142.58 170.04 142.29 170.15 141.91 170.15C141.53 170.15 141.23 170.04 141.01 169.82C140.79 169.6 140.68 169.31 140.68 168.95V149.87C140.68 149.53 140.79 149.25 141.01 149.03C141.23 148.81 141.53 148.7 141.91 148.7C142.29 148.7 142.58 148.81 142.78 149.03C143 149.23 143.11 149.51 143.11 149.87V157.91C143.55 156.99 144.19 156.28 145.03 155.78C145.89 155.28 146.89 155.03 148.03 155.03ZM147.55 168.2C148.97 168.2 150.07 167.71 150.85 166.73C151.63 165.73 152.02 164.34 152.02 162.56C152.02 160.82 151.63 159.47 150.85 158.51C150.07 157.55 148.97 157.07 147.55 157.07C146.13 157.07 145.03 157.55 144.25 158.51C143.49 159.47 143.11 160.84 143.11 162.62C143.11 164.4 143.49 165.78 144.25 166.76C145.03 167.72 146.13 168.2 147.55 168.2ZM174.401 155.03C177.641 155.03 179.261 156.96 179.261 160.82V168.95C179.261 169.33 179.151 169.63 178.931 169.85C178.711 170.05 178.421 170.15 178.061 170.15C177.701 170.15 177.401 170.05 177.161 169.85C176.941 169.63 176.831 169.33 176.831 168.95V160.88C176.831 159.54 176.591 158.57 176.111 157.97C175.631 157.37 174.881 157.07 173.861 157.07C172.641 157.07 171.681 157.48 170.981 158.3C170.281 159.12 169.931 160.23 169.931 161.63V168.95C169.931 169.33 169.811 169.63 169.571 169.85C169.351 170.05 169.061 170.15 168.701 170.15C168.341 170.15 168.051 170.05 167.831 169.85C167.611 169.63 167.501 169.33 167.501 168.95V160.88C167.501 159.54 167.261 158.57 166.781 157.97C166.301 157.37 165.541 157.07 164.501 157.07C163.301 157.07 162.341 157.48 161.621 158.3C160.921 159.12 160.571 160.23 160.571 161.63V168.95C160.571 169.33 160.461 169.63 160.241 169.85C160.021 170.05 159.731 170.15 159.371 170.15C159.011 170.15 158.711 170.05 158.471 169.85C158.251 169.63 158.141 169.33 158.141 168.95V156.29C158.141 155.93 158.251 155.64 158.471 155.42C158.711 155.2 159.011 155.09 159.371 155.09C159.711 155.09 159.991 155.2 160.211 155.42C160.431 155.62 160.541 155.9 160.541 156.26V157.7C160.981 156.84 161.591 156.18 162.371 155.72C163.151 155.26 164.051 155.03 165.071 155.03C167.351 155.03 168.841 155.99 169.541 157.91C169.961 157.03 170.601 156.33 171.461 155.81C172.321 155.29 173.301 155.03 174.401 155.03ZM184.918 170.15C184.558 170.15 184.258 170.05 184.018 169.85C183.798 169.63 183.688 169.33 183.688 168.95V156.29C183.688 155.91 183.798 155.62 184.018 155.42C184.258 155.2 184.558 155.09 184.918 155.09C185.278 155.09 185.568 155.2 185.788 155.42C186.008 155.62 186.118 155.91 186.118 156.29V168.95C186.118 169.35 186.008 169.65 185.788 169.85C185.568 170.05 185.278 170.15 184.918 170.15ZM184.918 151.94C184.438 151.94 184.048 151.8 183.748 151.52C183.448 151.24 183.298 150.87 183.298 150.41C183.298 149.97 183.448 149.61 183.748 149.33C184.048 149.05 184.438 148.91 184.918 148.91C185.398 148.91 185.788 149.05 186.088 149.33C186.388 149.61 186.538 149.97 186.538 150.41C186.538 150.87 186.388 151.24 186.088 151.52C185.788 151.8 185.398 151.94 184.918 151.94ZM195.58 170.21C194.66 170.21 193.78 170.1 192.94 169.88C192.12 169.66 191.39 169.35 190.75 168.95C190.39 168.71 190.13 168.49 189.97 168.29C189.83 168.07 189.76 167.81 189.76 167.51C189.76 167.25 189.83 167.04 189.97 166.88C190.13 166.7 190.33 166.61 190.57 166.61C190.81 166.61 191.16 166.76 191.62 167.06C192.22 167.42 192.81 167.71 193.39 167.93C193.99 168.13 194.73 168.23 195.61 168.23C196.69 168.23 197.53 168.04 198.13 167.66C198.73 167.28 199.03 166.73 199.03 166.01C199.03 165.57 198.92 165.22 198.7 164.96C198.48 164.68 198.1 164.44 197.56 164.24C197.02 164.02 196.23 163.8 195.19 163.58C193.43 163.2 192.17 162.69 191.41 162.05C190.65 161.41 190.27 160.54 190.27 159.44C190.27 158.58 190.51 157.82 190.99 157.16C191.47 156.5 192.13 155.98 192.97 155.6C193.83 155.22 194.8 155.03 195.88 155.03C196.66 155.03 197.41 155.14 198.13 155.36C198.87 155.56 199.52 155.85 200.08 156.23C200.76 156.71 201.1 157.21 201.1 157.73C201.1 157.99 201.02 158.21 200.86 158.39C200.7 158.57 200.51 158.66 200.29 158.66C200.05 158.66 199.69 158.49 199.21 158.15C198.65 157.79 198.12 157.51 197.62 157.31C197.12 157.11 196.5 157.01 195.76 157.01C194.82 157.01 194.06 157.22 193.48 157.64C192.92 158.06 192.64 158.62 192.64 159.32C192.64 159.76 192.74 160.12 192.94 160.4C193.16 160.66 193.51 160.9 193.99 161.12C194.49 161.32 195.2 161.52 196.12 161.72C197.48 162.02 198.53 162.35 199.27 162.71C200.03 163.07 200.57 163.51 200.89 164.03C201.21 164.55 201.37 165.21 201.37 166.01C201.37 167.27 200.84 168.29 199.78 169.07C198.72 169.83 197.32 170.21 195.58 170.21ZM209.994 170.21C209.074 170.21 208.194 170.1 207.354 169.88C206.534 169.66 205.804 169.35 205.164 168.95C204.804 168.71 204.544 168.49 204.384 168.29C204.244 168.07 204.174 167.81 204.174 167.51C204.174 167.25 204.244 167.04 204.384 166.88C204.544 166.7 204.744 166.61 204.984 166.61C205.224 166.61 205.574 166.76 206.034 167.06C206.634 167.42 207.224 167.71 207.804 167.93C208.404 168.13 209.144 168.23 210.024 168.23C211.104 168.23 211.944 168.04 212.544 167.66C213.144 167.28 213.444 166.73 213.444 166.01C213.444 165.57 213.334 165.22 213.114 164.96C212.894 164.68 212.514 164.44 211.974 164.24C211.434 164.02 210.644 163.8 209.604 163.58C207.844 163.2 206.584 162.69 205.824 162.05C205.064 161.41 204.684 160.54 204.684 159.44C204.684 158.58 204.924 157.82 205.404 157.16C205.884 156.5 206.544 155.98 207.384 155.6C208.244 155.22 209.214 155.03 210.294 155.03C211.074 155.03 211.824 155.14 212.544 155.36C213.284 155.56 213.934 155.85 214.494 156.23C215.174 156.71 215.514 157.21 215.514 157.73C215.514 157.99 215.434 158.21 215.274 158.39C215.114 158.57 214.924 158.66 214.704 158.66C214.464 158.66 214.104 158.49 213.624 158.15C213.064 157.79 212.534 157.51 212.034 157.31C211.534 157.11 210.914 157.01 210.174 157.01C209.234 157.01 208.474 157.22 207.894 157.64C207.334 158.06 207.054 158.62 207.054 159.32C207.054 159.76 207.154 160.12 207.354 160.4C207.574 160.66 207.924 160.9 208.404 161.12C208.904 161.32 209.614 161.52 210.534 161.72C211.894 162.02 212.944 162.35 213.684 162.71C214.444 163.07 214.984 163.51 215.304 164.03C215.624 164.55 215.784 165.21 215.784 166.01C215.784 167.27 215.254 168.29 214.194 169.07C213.134 169.83 211.734 170.21 209.994 170.21ZM220.718 170.15C220.358 170.15 220.058 170.05 219.818 169.85C219.598 169.63 219.488 169.33 219.488 168.95V156.29C219.488 155.91 219.598 155.62 219.818 155.42C220.058 155.2 220.358 155.09 220.718 155.09C221.078 155.09 221.368 155.2 221.588 155.42C221.808 155.62 221.918 155.91 221.918 156.29V168.95C221.918 169.35 221.808 169.65 221.588 169.85C221.368 170.05 221.078 170.15 220.718 170.15ZM220.718 151.94C220.238 151.94 219.848 151.8 219.548 151.52C219.248 151.24 219.098 150.87 219.098 150.41C219.098 149.97 219.248 149.61 219.548 149.33C219.848 149.05 220.238 148.91 220.718 148.91C221.198 148.91 221.588 149.05 221.888 149.33C222.188 149.61 222.338 149.97 222.338 150.41C222.338 150.87 222.188 151.24 221.888 151.52C221.588 151.8 221.198 151.94 220.718 151.94ZM232.521 170.21C231.141 170.21 229.921 169.9 228.861 169.28C227.821 168.66 227.011 167.78 226.431 166.64C225.871 165.48 225.591 164.14 225.591 162.62C225.591 161.1 225.871 159.77 226.431 158.63C227.011 157.47 227.821 156.58 228.861 155.96C229.921 155.34 231.141 155.03 232.521 155.03C233.901 155.03 235.121 155.34 236.181 155.96C237.241 156.58 238.051 157.47 238.611 158.63C239.191 159.77 239.481 161.1 239.481 162.62C239.481 164.14 239.191 165.48 238.611 166.64C238.051 167.78 237.241 168.66 236.181 169.28C235.121 169.9 233.901 170.21 232.521 170.21ZM232.521 168.2C233.961 168.2 235.061 167.73 235.821 166.79C236.601 165.83 236.991 164.44 236.991 162.62C236.991 160.84 236.601 159.47 235.821 158.51C235.041 157.53 233.941 157.04 232.521 157.04C231.101 157.04 230.001 157.53 229.221 158.51C228.441 159.47 228.051 160.84 228.051 162.62C228.051 164.42 228.431 165.8 229.191 166.76C229.971 167.72 231.081 168.2 232.521 168.2ZM250.452 155.03C253.952 155.03 255.702 156.96 255.702 160.82V168.95C255.702 169.33 255.592 169.63 255.372 169.85C255.172 170.05 254.882 170.15 254.502 170.15C254.122 170.15 253.822 170.05 253.602 169.85C253.382 169.63 253.272 169.33 253.272 168.95V160.97C253.272 159.61 253.002 158.62 252.462 158C251.942 157.38 251.102 157.07 249.942 157.07C248.602 157.07 247.532 157.48 246.732 158.3C245.932 159.12 245.532 160.23 245.532 161.63V168.95C245.532 169.33 245.422 169.63 245.202 169.85C245.002 170.05 244.712 170.15 244.332 170.15C243.952 170.15 243.652 170.05 243.432 169.85C243.212 169.63 243.102 169.33 243.102 168.95V156.29C243.102 155.93 243.212 155.64 243.432 155.42C243.652 155.2 243.952 155.09 244.332 155.09C244.692 155.09 244.972 155.2 245.172 155.42C245.392 155.64 245.502 155.92 245.502 156.26V157.79C245.982 156.89 246.652 156.21 247.512 155.75C248.372 155.27 249.352 155.03 250.452 155.03Z" fill="#303137"/>
<circle cx="100" cy="325" r="100" fill="#303137"/>
<path d="M75.2734 300.82C75.348 300.577 75.4787 300.4 75.6654 300.288C75.852 300.157 76.0574 300.092 76.2814 300.092C76.58 300.092 76.832 300.185 77.0374 300.372C77.2614 300.54 77.3734 300.773 77.3734 301.072C77.3734 301.203 77.3454 301.352 77.2894 301.52L70.9614 319.356C70.868 319.617 70.7094 319.823 70.4854 319.972C70.2614 320.103 70.0094 320.168 69.7294 320.168C69.468 320.168 69.2254 320.103 69.0014 319.972C68.7774 319.823 68.6187 319.617 68.5254 319.356L63.0374 303.844L57.4934 319.356C57.4 319.617 57.2414 319.823 57.0174 319.972C56.7934 320.103 56.5507 320.168 56.2894 320.168C56.028 320.168 55.7854 320.103 55.5614 319.972C55.3374 319.823 55.1787 319.617 55.0854 319.356L48.7294 301.52C48.6734 301.371 48.6454 301.231 48.6454 301.1C48.6454 300.801 48.7574 300.559 48.9814 300.372C49.224 300.185 49.4947 300.092 49.7934 300.092C50.0174 300.092 50.2227 300.157 50.4094 300.288C50.6147 300.4 50.7547 300.577 50.8294 300.82L56.3454 316.724L61.9454 300.988C62.0387 300.708 62.188 300.503 62.3934 300.372C62.5987 300.223 62.8227 300.148 63.0654 300.148C63.308 300.148 63.532 300.223 63.7374 300.372C63.9427 300.521 64.092 300.736 64.1854 301.016L69.7014 316.78L75.2734 300.82ZM89.5232 316.836C89.7285 316.836 89.9059 316.92 90.0552 317.088C90.2045 317.256 90.2792 317.471 90.2792 317.732C90.2792 318.199 89.9525 318.628 89.2992 319.02C88.6272 319.412 87.9179 319.711 87.1712 319.916C86.4245 320.103 85.6965 320.196 84.9872 320.196C82.8779 320.196 81.2072 319.571 79.9752 318.32C78.7619 317.069 78.1552 315.343 78.1552 313.14C78.1552 311.74 78.4259 310.508 78.9672 309.444C79.5085 308.361 80.2645 307.521 81.2352 306.924C82.2245 306.327 83.3445 306.028 84.5952 306.028C86.3685 306.028 87.7779 306.607 88.8232 307.764C89.8685 308.921 90.3912 310.489 90.3912 312.468C90.3912 312.841 90.3165 313.112 90.1672 313.28C90.0179 313.448 89.7752 313.532 89.4392 313.532H80.4232C80.5912 316.743 82.1125 318.348 84.9872 318.348C85.7152 318.348 86.3405 318.255 86.8632 318.068C87.3859 317.863 87.9459 317.592 88.5432 317.256C89.0285 316.976 89.3552 316.836 89.5232 316.836ZM84.6232 307.792C83.4285 307.792 82.4672 308.165 81.7392 308.912C81.0299 309.659 80.6099 310.713 80.4792 312.076H88.4032C88.3659 310.695 88.0205 309.64 87.3672 308.912C86.7139 308.165 85.7992 307.792 84.6232 307.792ZM100.593 306.028C101.787 306.028 102.842 306.317 103.757 306.896C104.671 307.475 105.381 308.296 105.885 309.36C106.389 310.424 106.641 311.656 106.641 313.056C106.641 314.475 106.389 315.725 105.885 316.808C105.381 317.872 104.671 318.703 103.757 319.3C102.842 319.897 101.787 320.196 100.593 320.196C99.5288 320.196 98.5955 319.963 97.7928 319.496C97.0088 319.029 96.4115 318.367 96.0008 317.508V319.02C96.0008 319.356 95.8981 319.627 95.6928 319.832C95.5061 320.037 95.2355 320.14 94.8808 320.14C94.5261 320.14 94.2461 320.037 94.0408 319.832C93.8355 319.627 93.7328 319.356 93.7328 319.02V301.212C93.7328 300.895 93.8355 300.633 94.0408 300.428C94.2461 300.223 94.5261 300.12 94.8808 300.12C95.2355 300.12 95.5061 300.223 95.6928 300.428C95.8981 300.615 96.0008 300.876 96.0008 301.212V308.716C96.4115 307.857 97.0088 307.195 97.7928 306.728C98.5955 306.261 99.5288 306.028 100.593 306.028ZM100.145 318.32C101.47 318.32 102.497 317.863 103.225 316.948C103.953 316.015 104.317 314.717 104.317 313.056C104.317 311.432 103.953 310.172 103.225 309.276C102.497 308.38 101.47 307.932 100.145 307.932C98.8195 307.932 97.7928 308.38 97.0648 309.276C96.3555 310.172 96.0008 311.451 96.0008 313.112C96.0008 314.773 96.3555 316.061 97.0648 316.976C97.7928 317.872 98.8195 318.32 100.145 318.32ZM114.622 320.196C113.763 320.196 112.942 320.093 112.158 319.888C111.392 319.683 110.711 319.393 110.114 319.02C109.778 318.796 109.535 318.591 109.386 318.404C109.255 318.199 109.19 317.956 109.19 317.676C109.19 317.433 109.255 317.237 109.386 317.088C109.535 316.92 109.722 316.836 109.946 316.836C110.17 316.836 110.496 316.976 110.926 317.256C111.486 317.592 112.036 317.863 112.578 318.068C113.138 318.255 113.828 318.348 114.65 318.348C115.658 318.348 116.442 318.171 117.002 317.816C117.562 317.461 117.842 316.948 117.842 316.276C117.842 315.865 117.739 315.539 117.534 315.296C117.328 315.035 116.974 314.811 116.47 314.624C115.966 314.419 115.228 314.213 114.258 314.008C112.615 313.653 111.439 313.177 110.73 312.58C110.02 311.983 109.666 311.171 109.666 310.144C109.666 309.341 109.89 308.632 110.338 308.016C110.786 307.4 111.402 306.915 112.186 306.56C112.988 306.205 113.894 306.028 114.902 306.028C115.63 306.028 116.33 306.131 117.002 306.336C117.692 306.523 118.299 306.793 118.822 307.148C119.456 307.596 119.774 308.063 119.774 308.548C119.774 308.791 119.699 308.996 119.55 309.164C119.4 309.332 119.223 309.416 119.018 309.416C118.794 309.416 118.458 309.257 118.01 308.94C117.487 308.604 116.992 308.343 116.526 308.156C116.059 307.969 115.48 307.876 114.79 307.876C113.912 307.876 113.203 308.072 112.662 308.464C112.139 308.856 111.878 309.379 111.878 310.032C111.878 310.443 111.971 310.779 112.158 311.04C112.363 311.283 112.69 311.507 113.138 311.712C113.604 311.899 114.267 312.085 115.126 312.272C116.395 312.552 117.375 312.86 118.066 313.196C118.775 313.532 119.279 313.943 119.578 314.428C119.876 314.913 120.026 315.529 120.026 316.276C120.026 317.452 119.531 318.404 118.542 319.132C117.552 319.841 116.246 320.196 114.622 320.196ZM124.631 320.14C124.295 320.14 124.015 320.047 123.791 319.86C123.585 319.655 123.483 319.375 123.483 319.02V307.204C123.483 306.849 123.585 306.579 123.791 306.392C124.015 306.187 124.295 306.084 124.631 306.084C124.967 306.084 125.237 306.187 125.443 306.392C125.648 306.579 125.751 306.849 125.751 307.204V319.02C125.751 319.393 125.648 319.673 125.443 319.86C125.237 320.047 124.967 320.14 124.631 320.14ZM124.631 303.144C124.183 303.144 123.819 303.013 123.539 302.752C123.259 302.491 123.119 302.145 123.119 301.716C123.119 301.305 123.259 300.969 123.539 300.708C123.819 300.447 124.183 300.316 124.631 300.316C125.079 300.316 125.443 300.447 125.723 300.708C126.003 300.969 126.143 301.305 126.143 301.716C126.143 302.145 126.003 302.491 125.723 302.752C125.443 303.013 125.079 303.144 124.631 303.144ZM136.509 318.348C137.163 318.404 137.489 318.703 137.489 319.244C137.489 319.561 137.368 319.804 137.125 319.972C136.901 320.121 136.556 320.177 136.089 320.14L135.333 320.084C133.84 319.972 132.739 319.524 132.029 318.74C131.32 317.956 130.965 316.771 130.965 315.184V308.156H129.089C128.772 308.156 128.52 308.081 128.333 307.932C128.165 307.764 128.081 307.549 128.081 307.288C128.081 307.008 128.165 306.784 128.333 306.616C128.52 306.448 128.772 306.364 129.089 306.364H130.965V303.2C130.965 302.845 131.068 302.575 131.273 302.388C131.479 302.183 131.759 302.08 132.113 302.08C132.449 302.08 132.72 302.183 132.925 302.388C133.131 302.575 133.233 302.845 133.233 303.2V306.364H136.341C136.64 306.364 136.873 306.448 137.041 306.616C137.228 306.784 137.321 307.008 137.321 307.288C137.321 307.549 137.228 307.764 137.041 307.932C136.873 308.081 136.64 308.156 136.341 308.156H133.233V315.296C133.233 316.323 133.439 317.069 133.849 317.536C134.279 317.984 134.913 318.236 135.753 318.292L136.509 318.348ZM150.281 316.836C150.486 316.836 150.664 316.92 150.813 317.088C150.962 317.256 151.037 317.471 151.037 317.732C151.037 318.199 150.71 318.628 150.057 319.02C149.385 319.412 148.676 319.711 147.929 319.916C147.182 320.103 146.454 320.196 145.745 320.196C143.636 320.196 141.965 319.571 140.733 318.32C139.52 317.069 138.913 315.343 138.913 313.14C138.913 311.74 139.184 310.508 139.725 309.444C140.266 308.361 141.022 307.521 141.993 306.924C142.982 306.327 144.102 306.028 145.353 306.028C147.126 306.028 148.536 306.607 149.581 307.764C150.626 308.921 151.149 310.489 151.149 312.468C151.149 312.841 151.074 313.112 150.925 313.28C150.776 313.448 150.533 313.532 150.197 313.532H141.181C141.349 316.743 142.87 318.348 145.745 318.348C146.473 318.348 147.098 318.255 147.621 318.068C148.144 317.863 148.704 317.592 149.301 317.256C149.786 316.976 150.113 316.836 150.281 316.836ZM145.381 307.792C144.186 307.792 143.225 308.165 142.497 308.912C141.788 309.659 141.368 310.713 141.237 312.076H149.161C149.124 310.695 148.778 309.64 148.125 308.912C147.472 308.165 146.557 307.792 145.381 307.792ZM39.9972 338.12C40.3519 338.12 40.6225 338.232 40.8092 338.456C41.0145 338.661 41.1172 338.941 41.1172 339.296V357.02C41.1172 357.356 41.0239 357.627 40.8372 357.832C40.6505 358.037 40.3892 358.14 40.0532 358.14C39.7172 358.14 39.4652 358.037 39.2972 357.832C39.1292 357.627 39.0452 357.356 39.0452 357.02V342.712L32.9692 354.36C32.7079 354.901 32.3252 355.172 31.8212 355.172C31.3359 355.172 30.9532 354.901 30.6732 354.36L24.5692 342.852V357.02C24.5692 357.356 24.4759 357.627 24.2892 357.832C24.1212 358.037 23.8692 358.14 23.5332 358.14C23.1972 358.14 22.9359 358.037 22.7492 357.832C22.5625 357.627 22.4692 357.356 22.4692 357.02V339.296C22.4692 338.941 22.5719 338.661 22.7772 338.456C22.9825 338.232 23.2625 338.12 23.6172 338.12C24.0839 338.12 24.4572 338.391 24.7372 338.932L31.8492 352.568L38.8772 338.932C39.0265 338.633 39.1852 338.428 39.3532 338.316C39.5399 338.185 39.7545 338.12 39.9972 338.12ZM51.2482 344.028C54.6642 344.028 56.3722 345.82 56.3722 349.404V357.02C56.3722 357.356 56.2695 357.627 56.0642 357.832C55.8775 358.037 55.6162 358.14 55.2802 358.14C54.9442 358.14 54.6735 358.037 54.4682 357.832C54.2628 357.627 54.1602 357.356 54.1602 357.02V355.676C53.8055 356.479 53.2642 357.104 52.5362 357.552C51.8082 357.981 50.9682 358.196 50.0162 358.196C49.1388 358.196 48.3268 358.019 47.5802 357.664C46.8522 357.309 46.2735 356.815 45.8442 356.18C45.4148 355.545 45.2002 354.845 45.2002 354.08C45.2002 353.053 45.4615 352.26 45.9842 351.7C46.5068 351.121 47.3655 350.711 48.5602 350.468C49.7548 350.207 51.4162 350.076 53.5442 350.076H54.1602V349.152C54.1602 348.032 53.9268 347.211 53.4602 346.688C53.0122 346.165 52.2748 345.904 51.2482 345.904C49.9788 345.904 48.6908 346.249 47.3842 346.94C46.8802 347.257 46.5255 347.416 46.3202 347.416C46.0962 347.416 45.9095 347.332 45.7602 347.164C45.6108 346.996 45.5362 346.781 45.5362 346.52C45.5362 346.259 45.6108 346.035 45.7602 345.848C45.9282 345.643 46.1895 345.437 46.5442 345.232C47.1975 344.859 47.9348 344.569 48.7562 344.364C49.5962 344.14 50.4268 344.028 51.2482 344.028ZM50.3242 356.404C51.4442 356.404 52.3588 356.031 53.0682 355.284C53.7962 354.519 54.1602 353.539 54.1602 352.344V351.532H53.6562C52.0135 351.532 50.7628 351.607 49.9042 351.756C49.0455 351.887 48.4295 352.12 48.0562 352.456C47.7015 352.773 47.5242 353.249 47.5242 353.884C47.5242 354.612 47.7855 355.219 48.3082 355.704C48.8495 356.171 49.5215 356.404 50.3242 356.404ZM61.6718 358.14C61.3358 358.14 61.0558 358.047 60.8318 357.86C60.6265 357.655 60.5238 357.375 60.5238 357.02V345.204C60.5238 344.849 60.6265 344.579 60.8318 344.392C61.0558 344.187 61.3358 344.084 61.6718 344.084C62.0078 344.084 62.2785 344.187 62.4838 344.392C62.6892 344.579 62.7918 344.849 62.7918 345.204V357.02C62.7918 357.393 62.6892 357.673 62.4838 357.86C62.2785 358.047 62.0078 358.14 61.6718 358.14ZM61.6718 341.144C61.2238 341.144 60.8598 341.013 60.5798 340.752C60.2998 340.491 60.1598 340.145 60.1598 339.716C60.1598 339.305 60.2998 338.969 60.5798 338.708C60.8598 338.447 61.2238 338.316 61.6718 338.316C62.1198 338.316 62.4838 338.447 62.7638 338.708C63.0438 338.969 63.1838 339.305 63.1838 339.716C63.1838 340.145 63.0438 340.491 62.7638 340.752C62.4838 341.013 62.1198 341.144 61.6718 341.144ZM73.8916 344.028C77.1583 344.028 78.7916 345.829 78.7916 349.432V357.02C78.7916 357.375 78.689 357.655 78.4836 357.86C78.297 358.047 78.0263 358.14 77.6716 358.14C77.317 358.14 77.037 358.047 76.8316 357.86C76.6263 357.655 76.5236 357.375 76.5236 357.02V349.572C76.5236 348.303 76.2716 347.379 75.7676 346.8C75.2823 346.221 74.4983 345.932 73.4156 345.932C72.165 345.932 71.1663 346.315 70.4196 347.08C69.673 347.845 69.2996 348.881 69.2996 350.188V357.02C69.2996 357.375 69.197 357.655 68.9916 357.86C68.805 358.047 68.5343 358.14 68.1796 358.14C67.825 358.14 67.545 358.047 67.3396 357.86C67.1343 357.655 67.0316 357.375 67.0316 357.02V345.204C67.0316 344.868 67.1343 344.597 67.3396 344.392C67.545 344.187 67.825 344.084 68.1796 344.084C68.5156 344.084 68.777 344.187 68.9636 344.392C69.169 344.597 69.2716 344.859 69.2716 345.176V346.604C69.7196 345.764 70.345 345.129 71.1476 344.7C71.9503 344.252 72.865 344.028 73.8916 344.028ZM89.2457 356.348C89.899 356.404 90.2257 356.703 90.2257 357.244C90.2257 357.561 90.1044 357.804 89.8617 357.972C89.6377 358.121 89.2924 358.177 88.8257 358.14L88.0697 358.084C86.5764 357.972 85.475 357.524 84.7657 356.74C84.0564 355.956 83.7017 354.771 83.7017 353.184V346.156H81.8257C81.5084 346.156 81.2564 346.081 81.0697 345.932C80.9017 345.764 80.8177 345.549 80.8177 345.288C80.8177 345.008 80.9017 344.784 81.0697 344.616C81.2564 344.448 81.5084 344.364 81.8257 344.364H83.7017V341.2C83.7017 340.845 83.8044 340.575 84.0097 340.388C84.215 340.183 84.495 340.08 84.8497 340.08C85.1857 340.08 85.4564 340.183 85.6617 340.388C85.867 340.575 85.9697 340.845 85.9697 341.2V344.364H89.0777C89.3764 344.364 89.6097 344.448 89.7777 344.616C89.9644 344.784 90.0577 345.008 90.0577 345.288C90.0577 345.549 89.9644 345.764 89.7777 345.932C89.6097 346.081 89.3764 346.156 89.0777 346.156H85.9697V353.296C85.9697 354.323 86.175 355.069 86.5857 355.536C87.015 355.984 87.6497 356.236 88.4897 356.292L89.2457 356.348ZM103.017 354.836C103.223 354.836 103.4 354.92 103.549 355.088C103.699 355.256 103.773 355.471 103.773 355.732C103.773 356.199 103.447 356.628 102.793 357.02C102.121 357.412 101.412 357.711 100.665 357.916C99.9187 358.103 99.1907 358.196 98.4813 358.196C96.372 358.196 94.7013 357.571 93.4693 356.32C92.256 355.069 91.6493 353.343 91.6493 351.14C91.6493 349.74 91.92 348.508 92.4613 347.444C93.0027 346.361 93.7587 345.521 94.7293 344.924C95.7187 344.327 96.8387 344.028 98.0893 344.028C99.8627 344.028 101.272 344.607 102.317 345.764C103.363 346.921 103.885 348.489 103.885 350.468C103.885 350.841 103.811 351.112 103.661 351.28C103.512 351.448 103.269 351.532 102.933 351.532H93.9173C94.0853 354.743 95.6067 356.348 98.4813 356.348C99.2093 356.348 99.8347 356.255 100.357 356.068C100.88 355.863 101.44 355.592 102.037 355.256C102.523 354.976 102.849 354.836 103.017 354.836ZM98.1173 345.792C96.9227 345.792 95.9613 346.165 95.2333 346.912C94.524 347.659 94.104 348.713 93.9733 350.076H101.897C101.86 348.695 101.515 347.64 100.861 346.912C100.208 346.165 99.2933 345.792 98.1173 345.792ZM114.087 344.028C117.354 344.028 118.987 345.829 118.987 349.432V357.02C118.987 357.375 118.884 357.655 118.679 357.86C118.492 358.047 118.222 358.14 117.867 358.14C117.512 358.14 117.232 358.047 117.027 357.86C116.822 357.655 116.719 357.375 116.719 357.02V349.572C116.719 348.303 116.467 347.379 115.963 346.8C115.478 346.221 114.694 345.932 113.611 345.932C112.36 345.932 111.362 346.315 110.615 347.08C109.868 347.845 109.495 348.881 109.495 350.188V357.02C109.495 357.375 109.392 357.655 109.187 357.86C109 358.047 108.73 358.14 108.375 358.14C108.02 358.14 107.74 358.047 107.535 357.86C107.33 357.655 107.227 357.375 107.227 357.02V345.204C107.227 344.868 107.33 344.597 107.535 344.392C107.74 344.187 108.02 344.084 108.375 344.084C108.711 344.084 108.972 344.187 109.159 344.392C109.364 344.597 109.467 344.859 109.467 345.176V346.604C109.915 345.764 110.54 345.129 111.343 344.7C112.146 344.252 113.06 344.028 114.087 344.028ZM128.713 344.028C132.129 344.028 133.837 345.82 133.837 349.404V357.02C133.837 357.356 133.734 357.627 133.529 357.832C133.342 358.037 133.081 358.14 132.745 358.14C132.409 358.14 132.138 358.037 131.933 357.832C131.728 357.627 131.625 357.356 131.625 357.02V355.676C131.27 356.479 130.729 357.104 130.001 357.552C129.273 357.981 128.433 358.196 127.481 358.196C126.604 358.196 125.792 358.019 125.045 357.664C124.317 357.309 123.738 356.815 123.309 356.18C122.88 355.545 122.665 354.845 122.665 354.08C122.665 353.053 122.926 352.26 123.449 351.7C123.972 351.121 124.83 350.711 126.025 350.468C127.22 350.207 128.881 350.076 131.009 350.076H131.625V349.152C131.625 348.032 131.392 347.211 130.925 346.688C130.477 346.165 129.74 345.904 128.713 345.904C127.444 345.904 126.156 346.249 124.849 346.94C124.345 347.257 123.99 347.416 123.785 347.416C123.561 347.416 123.374 347.332 123.225 347.164C123.076 346.996 123.001 346.781 123.001 346.52C123.001 346.259 123.076 346.035 123.225 345.848C123.393 345.643 123.654 345.437 124.009 345.232C124.662 344.859 125.4 344.569 126.221 344.364C127.061 344.14 127.892 344.028 128.713 344.028ZM127.789 356.404C128.909 356.404 129.824 356.031 130.533 355.284C131.261 354.519 131.625 353.539 131.625 352.344V351.532H131.121C129.478 351.532 128.228 351.607 127.369 351.756C126.51 351.887 125.894 352.12 125.521 352.456C125.166 352.773 124.989 353.249 124.989 353.884C124.989 354.612 125.25 355.219 125.773 355.704C126.314 356.171 126.986 356.404 127.789 356.404ZM144.849 344.028C148.115 344.028 149.749 345.829 149.749 349.432V357.02C149.749 357.375 149.646 357.655 149.441 357.86C149.254 358.047 148.983 358.14 148.629 358.14C148.274 358.14 147.994 358.047 147.789 357.86C147.583 357.655 147.481 357.375 147.481 357.02V349.572C147.481 348.303 147.229 347.379 146.725 346.8C146.239 346.221 145.455 345.932 144.373 345.932C143.122 345.932 142.123 346.315 141.377 347.08C140.63 347.845 140.257 348.881 140.257 350.188V357.02C140.257 357.375 140.154 357.655 139.949 357.86C139.762 358.047 139.491 358.14 139.137 358.14C138.782 358.14 138.502 358.047 138.297 357.86C138.091 357.655 137.989 357.375 137.989 357.02V345.204C137.989 344.868 138.091 344.597 138.297 344.392C138.502 344.187 138.782 344.084 139.137 344.084C139.473 344.084 139.734 344.187 139.921 344.392C140.126 344.597 140.229 344.859 140.229 345.176V346.604C140.677 345.764 141.302 345.129 142.105 344.7C142.907 344.252 143.822 344.028 144.849 344.028ZM159.531 358.196C158.261 358.196 157.132 357.907 156.143 357.328C155.172 356.749 154.416 355.928 153.875 354.864C153.352 353.8 153.091 352.568 153.091 351.168C153.091 349.768 153.361 348.527 153.903 347.444C154.463 346.361 155.237 345.521 156.227 344.924C157.216 344.327 158.355 344.028 159.643 344.028C160.352 344.028 161.052 344.131 161.743 344.336C162.452 344.523 163.068 344.803 163.591 345.176C163.927 345.4 164.16 345.624 164.291 345.848C164.44 346.053 164.515 346.287 164.515 346.548C164.515 346.809 164.44 347.024 164.291 347.192C164.16 347.36 163.983 347.444 163.759 347.444C163.628 347.444 163.488 347.407 163.339 347.332C163.189 347.257 163.059 347.183 162.947 347.108C162.853 347.033 162.788 346.987 162.751 346.968C162.265 346.651 161.799 346.399 161.351 346.212C160.921 346.025 160.389 345.932 159.755 345.932C158.392 345.932 157.328 346.399 156.563 347.332C155.816 348.247 155.443 349.525 155.443 351.168C155.443 352.811 155.816 354.08 156.563 354.976C157.328 355.872 158.392 356.32 159.755 356.32C160.389 356.32 160.931 356.227 161.379 356.04C161.845 355.853 162.312 355.601 162.779 355.284C162.984 355.153 163.18 355.041 163.367 354.948C163.553 354.855 163.712 354.808 163.843 354.808C164.048 354.808 164.216 354.892 164.347 355.06C164.496 355.228 164.571 355.443 164.571 355.704C164.571 355.947 164.505 356.171 164.375 356.376C164.244 356.563 164.001 356.777 163.647 357.02C163.124 357.375 162.489 357.664 161.743 357.888C161.015 358.093 160.277 358.196 159.531 358.196ZM177.857 354.836C178.063 354.836 178.24 354.92 178.389 355.088C178.539 355.256 178.613 355.471 178.613 355.732C178.613 356.199 178.287 356.628 177.633 357.02C176.961 357.412 176.252 357.711 175.505 357.916C174.759 358.103 174.031 358.196 173.321 358.196C171.212 358.196 169.541 357.571 168.309 356.32C167.096 355.069 166.489 353.343 166.489 351.14C166.489 349.74 166.76 348.508 167.301 347.444C167.843 346.361 168.599 345.521 169.569 344.924C170.559 344.327 171.679 344.028 172.929 344.028C174.703 344.028 176.112 344.607 177.157 345.764C178.203 346.921 178.725 348.489 178.725 350.468C178.725 350.841 178.651 351.112 178.501 351.28C178.352 351.448 178.109 351.532 177.773 351.532H168.757C168.925 354.743 170.447 356.348 173.321 356.348C174.049 356.348 174.675 356.255 175.197 356.068C175.72 355.863 176.28 355.592 176.877 355.256C177.363 354.976 177.689 354.836 177.857 354.836ZM172.957 345.792C171.763 345.792 170.801 346.165 170.073 346.912C169.364 347.659 168.944 348.713 168.813 350.076H176.737C176.7 348.695 176.355 347.64 175.701 346.912C175.048 346.165 174.133 345.792 172.957 345.792Z" fill="#F3F8F7"/>
</svg>
